<svg version="1.1" viewBox="0.0 0.0 509.01049868766404 476.5590551181102" fill="none" stroke="none" stroke-linecap="square" stroke-miterlimit="10" xmlns:xlink="http://www.w3.org/1999/xlink" xmlns="http://www.w3.org/2000/svg"><clipPath id="p.0"><path d="m0 0l509.0105 0l0 476.55905l-509.0105 0l0 -476.55905z" clip-rule="nonzero"/></clipPath><g clip-path="url(#p.0)"><path fill="#000000" fill-opacity="0.0" d="m0 0l509.0105 0l0 476.55905l-509.0105 0z" fill-rule="evenodd"/><path fill="#666666" d="m12.423884 237.12668l0 0c0 -124.13796 107.61383 -224.77165 240.3622 -224.77165l0 0c132.74837 0 240.3622 100.6337 240.3622 224.77165l0 0c0 124.13794 -107.61383 224.77164 -240.3622 224.77164l0 0c-132.74838 0 -240.3622 -100.6337 -240.3622 -224.77164z" fill-rule="evenodd"/><path stroke="#595959" stroke-width="1.0" stroke-linejoin="round" stroke-linecap="butt" d="m12.423884 237.12668l0 0c0 -124.13796 107.61383 -224.77165 240.3622 -224.77165l0 0c132.74837 0 240.3622 100.6337 240.3622 224.77165l0 0c0 124.13794 -107.61383 224.77164 -240.3622 224.77164l0 0c-132.74838 0 -240.3622 -100.6337 -240.3622 -224.77164z" fill-rule="evenodd"/><path fill="#000000" fill-opacity="0.0" d="m112.25328 24.812992l129.19685 0l0 504.18896l-129.19685 0z" fill-rule="evenodd"/><path fill="#ffffff" d="m156.0189 417.813l0 -180.07812l-31.046875 0l0 -27.34375l31.046875 0l0 -22.078125q0 -20.890625 3.71875 -31.046875q5.078125 -13.671875 17.859375 -22.171875q12.796875 -8.499992 35.84375 -8.499992q14.84375 0 32.8125 3.5156174l-5.265625 30.671875q-10.9375 -1.953125 -20.703125 -1.953125q-16.015625 0 -22.65625 6.84375q-6.640625 6.828125 -6.640625 25.578125l0 19.140625l40.421875 0l0 27.34375l-40.421875 0l0 180.07812l-34.96875 0z" fill-rule="nonzero"/><path fill="#000000" fill-opacity="0.0" d="m237.06955 -18.293306l288.78738 0l0 277.76376l-288.78738 0z" fill-rule="evenodd"/><path fill="#ffffff" d="m304.50705 190.4942l2.875 17.59375q-8.40625 1.765625 -15.046875 1.765625q-10.84375 0 -16.828125 -3.421875q-5.96875 -3.4375 -8.40625 -9.015625q-2.4375 -5.59375 -2.4375 -23.53125l0 -67.625l-14.609375 0l0 -15.484375l14.609375 0l0 -29.109379l19.8125 -11.953125l0 41.062504l20.03125 0l0 15.484375l-20.03125 0l0 68.734375q0 8.515625 1.046875 10.953125q1.046875 2.4375 3.421875 3.875q2.390625 1.4375 6.8125 1.4375q3.328125 0 8.75 -0.765625zm96.17551 -25.234375l19.578125 2.546875q-3.203125 20.25 -16.4375 31.703125q-13.21875 11.453125 -32.46875 11.453125q-24.125 0 -38.796875 -15.765625q-14.65625 -15.78125 -14.65625 -45.21875q0 -19.03125 6.296875 -33.296875q6.3125 -14.28125 19.203125 -21.421875q12.890625 -7.140625 28.0625 -7.140625q19.140625 0 31.3125 9.6875q12.171875 9.671875 15.609375 27.5l-19.375 2.984375q-2.765625 -11.84375 -9.796875 -17.8125q-7.015625 -5.984375 -16.984375 -5.984375q-15.046875 0 -24.453125 10.796875q-9.40625 10.78125 -9.40625 34.140625q0 23.6875 9.078125 34.421875q9.078125 10.734375 23.6875 10.734375q11.71875 0 19.578125 -7.1875q7.859375 -7.203125 9.96875 -22.140625z" fill-rule="nonzero"/></g></svg>